<svg xmlns="http://www.w3.org/2000/svg" width="760" height="420" viewBox="0 0 760 420">
<rect width="760" height="420" fill="white"/>
<text x="64" y="24" font-size="15" font-weight="600" fill="#111827" font-family="system-ui, -apple-system, sans-serif">Uploads completed over time — old queue vs new workers (same device, same files)</text>
<line x1="64" y1="372" x2="736" y2="372" stroke="#e5e7eb"/><text x="56" y="376" text-anchor="end" font-size="12" fill="#6b7280" font-family="system-ui, -apple-system, sans-serif">0</text><line x1="64" y1="290" x2="736" y2="290" stroke="#e5e7eb"/><text x="56" y="294" text-anchor="end" font-size="12" fill="#6b7280" font-family="system-ui, -apple-system, sans-serif">200</text><line x1="64" y1="208" x2="736" y2="208" stroke="#e5e7eb"/><text x="56" y="212" text-anchor="end" font-size="12" fill="#6b7280" font-family="system-ui, -apple-system, sans-serif">400</text><line x1="64" y1="126" x2="736" y2="126" stroke="#e5e7eb"/><text x="56" y="130" text-anchor="end" font-size="12" fill="#6b7280" font-family="system-ui, -apple-system, sans-serif">600</text><line x1="64" y1="44" x2="736" y2="44" stroke="#e5e7eb"/><text x="56" y="48" text-anchor="end" font-size="12" fill="#6b7280" font-family="system-ui, -apple-system, sans-serif">800</text><line x1="64" y1="44" x2="64" y2="372" stroke="#f3f4f6"/><text x="64" y="390" text-anchor="middle" font-size="12" fill="#6b7280" font-family="system-ui, -apple-system, sans-serif">0</text><line x1="153.6" y1="44" x2="153.6" y2="372" stroke="#f3f4f6"/><text x="153.6" y="390" text-anchor="middle" font-size="12" fill="#6b7280" font-family="system-ui, -apple-system, sans-serif">1</text><line x1="243.2" y1="44" x2="243.2" y2="372" stroke="#f3f4f6"/><text x="243.2" y="390" text-anchor="middle" font-size="12" fill="#6b7280" font-family="system-ui, -apple-system, sans-serif">2</text><line x1="332.8" y1="44" x2="332.8" y2="372" stroke="#f3f4f6"/><text x="332.8" y="390" text-anchor="middle" font-size="12" fill="#6b7280" font-family="system-ui, -apple-system, sans-serif">3</text><line x1="422.4" y1="44" x2="422.4" y2="372" stroke="#f3f4f6"/><text x="422.4" y="390" text-anchor="middle" font-size="12" fill="#6b7280" font-family="system-ui, -apple-system, sans-serif">4</text><line x1="512" y1="44" x2="512" y2="372" stroke="#f3f4f6"/><text x="512" y="390" text-anchor="middle" font-size="12" fill="#6b7280" font-family="system-ui, -apple-system, sans-serif">5</text><line x1="601.6" y1="44" x2="601.6" y2="372" stroke="#f3f4f6"/><text x="601.6" y="390" text-anchor="middle" font-size="12" fill="#6b7280" font-family="system-ui, -apple-system, sans-serif">6</text><line x1="691.2" y1="44" x2="691.2" y2="372" stroke="#f3f4f6"/><text x="691.2" y="390" text-anchor="middle" font-size="12" fill="#6b7280" font-family="system-ui, -apple-system, sans-serif">7</text>
<line x1="64" y1="372" x2="736" y2="372" stroke="#9ca3af"/>
<line x1="64" y1="44" x2="64" y2="372" stroke="#9ca3af"/>
<text x="400" y="412" text-anchor="middle" font-size="12" fill="#374151" font-family="system-ui, -apple-system, sans-serif">minutes since first upload</text>
<text x="14" y="208" text-anchor="middle" font-size="12" fill="#374151" font-family="system-ui, -apple-system, sans-serif" transform="rotate(-90 14 208)">files uploaded (server-confirmed)</text>
<polyline points="64.0,372.0 67.0,367.1 70.0,363.0 74.5,358.9 77.4,354.0 80.4,350.7 84.9,346.6 87.9,343.3 90.9,340.0 95.4,337.1 98.3,332.2 101.3,330.6 104.3,328.9 108.8,327.3 111.8,325.7 114.8,324.0 119.3,320.8 122.2,318.3 125.2,315.8 129.7,313.4 132.7,311.3 135.7,308.4 140.2,306.4 143.1,302.3 146.1,300.7 150.6,299.0 153.6,297.4 156.6,297.4 161.1,295.3 164.1,293.7 167.0,290.8 171.5,288.8 174.5,286.3 177.5,283.9 182.0,282.2 185.0,278.9 189.4,277.3 192.4,275.6 195.4,273.6 199.9,271.1 202.9,269.5 205.9,267.9 208.9,266.2 213.3,264.6 216.3,262.5 219.3,260.1 223.8,257.6 226.8,256.0 229.8,254.3 234.2,251.1 237.2,249.4 240.2,247.8 244.7,247.4 247.7,245.7 250.7,244.9 253.7,243.7 258.1,240.8 261.1,240.4 264.1,239.2 267.1,237.5 271.6,236.7 274.6,233.8 277.5,229.3 282.0,226.9 285.0,224.8 288.0,224.4 292.5,222.8 295.5,221.1 298.5,221.1 302.9,219.5 305.9,217.8 308.9,215.0 311.9,214.2 316.4,212.9 319.4,210.5 322.3,210.5 325.3,208.8 329.8,207.2 332.8,205.5 335.8,205.1 340.3,203.9 343.3,202.3 346.2,201.8 349.2,200.2 353.7,199.8 356.7,198.2 359.7,196.5 364.2,194.9 367.1,194.9 370.1,193.2 373.1,192.0 376.1,191.2 380.6,189.5 383.6,187.9 386.6,187.5 389.5,185.9 394.0,184.2 397.0,183.8 400.0,182.6 404.5,181.8 407.5,180.1 410.5,177.3 414.9,176.0 417.9,174.0 420.9,173.6 425.4,171.1 428.4,170.7 431.4,168.6 435.8,167.0 438.8,166.6 441.8,165.0 446.3,163.7 449.3,161.7 452.3,160.8 455.3,158.8 459.7,156.8 462.7,155.1 465.7,153.5 470.2,151.8 473.2,150.6 476.2,148.5 480.6,148.1 483.6,146.5 486.6,144.9 491.1,144.0 494.1,142.8 497.1,140.3 500.1,139.5 504.5,137.9 507.5,135.8 510.5,134.2 515.0,133.4 518.0,131.7 521.0,130.1 523.9,129.7 528.4,128.0 531.4,126.4 534.4,125.6 537.4,124.4 541.9,123.1 544.9,121.5 547.8,120.7 550.8,119.8 555.3,116.6 558.3,114.9 562.8,110.0 565.8,108.8 568.7,107.6 573.2,107.1 576.2,105.5 579.2,105.1 582.2,103.0 586.7,101.8 589.7,101.0 592.6,98.9 595.6,98.9 600.1,97.7 603.1,96.1 606.1,94.4 610.6,92.8 613.5,91.2 616.5,90.3 619.5,89.5 624.0,88.3 627.0,86.6 630.0,85.0 634.5,83.4 637.4,83.4 640.4,80.9 643.4,80.9 647.9,79.3 650.9,78.4 653.9,76.8 658.3,76.0 661.3,73.9 664.3,73.9 667.3,71.5 671.8,70.7 674.8,68.6 679.3,66.6 682.2,66.1 685.2,64.1 689.7,62.4 692.7,60.8 695.7,60.0 698.7,59.2 703.1,57.5 706.1,55.9 709.1,54.3" fill="none" stroke="#16a34a" stroke-width="2.5" stroke-linejoin="round"/>
<polyline points="64.0,372.0 67.0,371.2 71.5,369.9 74.5,369.5 77.4,368.7 80.4,367.5 83.4,366.7 86.4,366.3 90.9,365.4 93.9,365.0 96.9,364.6 99.8,363.8 102.8,363.4 105.8,362.6 110.3,362.2 113.3,361.8 116.3,360.9 119.3,360.5 122.2,359.7 125.2,359.3 129.7,358.1 132.7,357.6 135.7,356.8 138.7,356.4 146.1,356.0 149.1,355.6 152.1,355.2 158.1,354.8 162.6,354.4 168.5,354.0 176.0,353.6 182.0,353.1 192.4,352.7 199.9,352.3 205.9,351.9 213.3,351.5 220.8,351.1 223.8,350.7 229.8,350.3 234.2,349.9 240.2,349.4 243.2,349.0" fill="none" stroke="#dc2626" stroke-width="2.5" stroke-linejoin="round"/>
<text x="341.76" y="142.4" font-size="13" font-weight="600" fill="#16a34a" font-family="system-ui, -apple-system, sans-serif">new: 775 files in 7.2 min (~108/min, steady)</text>
<text x="256.64" y="339.2" font-size="13" font-weight="600" fill="#dc2626" font-family="system-ui, -apple-system, sans-serif">old: 56 files in 2 min (~28/min, slowing)</text>
</svg>